<svg id="Layer_35" enable-background="new 0 0 64 64" height="512" viewBox="0 0 64 64" width="512" xmlns="http://www.w3.org/2000/svg"><path d="m61 18-5 8-5-8h3v-17h4v17z" fill="#ff826e"/><path d="m44 4 5 8h-3v15h-4v-15h-3z" fill="#ff826e"/><path d="m22 34v24.5c0 1.93-1.57 3.5-3.5 3.5-.96 0-1.84-.39-2.47-1.03-.64-.63-1.03-1.51-1.03-2.47v-20.5h3v-4z" fill="#cf9e76"/><path d="m15 38v20.5c0 1.93-1.57 3.5-3.5 3.5-.96 0-1.84-.39-2.47-1.03-.64-.63-1.03-1.51-1.03-2.47v-20.5z" fill="#cf9e76"/><path d="m18 24v10 4h-3-7v-5h5.5c.69 0 1.32-.28 1.77-.73s.73-1.08.73-1.77c0-1.38-1.12-2.5-2.5-2.5h-5.5v-4z" fill="#e6e9ed"/><path d="m8 28h5.5c1.38 0 2.5 1.12 2.5 2.5 0 .69-.28 1.32-.73 1.77s-1.08.73-1.77.73h-5.5-2c-2.21 0-4-1.79-4-4v-3c0-5.52 4.48-10 10-10h3 1l11-1v-10.5c0-1.38 1.12-2.5 2.5-2.5.69 0 1.32.28 1.77.73s.73 1.08.73 1.77v11.88c0 2.06-1.56 3.78-3.6 3.98l-6.4.64v13h-4v-10h-10z" fill="#b4dd7f"/><circle cx="15" cy="10" fill="#f0d0b4" r="6"/><path d="m46 30c8.84 0 16 7.16 16 16s-7.16 16-16 16-16-7.16-16-16 7.16-16 16-16z" fill="#ffc729"/><path d="m58 46c0 2.78-.95 5.33-2.54 7.36l-2.1 2.1c-2.03 1.59-4.58 2.54-7.36 2.54-6.63 0-12-5.37-12-12 0-2.78.95-5.33 2.54-7.36l2.1-2.1c2.03-1.59 4.58-2.54 7.36-2.54 6.63 0 12 5.37 12 12z" fill="#fcd770"/><path d="m46 51c-1.103 0-2-.897-2-2h-2c0 1.859 1.28 3.411 3 3.858v2.142h2v-2h3v-4c0-2.206-1.794-4-4-4-1.103 0-2-.897-2-2v-2h2c1.103 0 2 .897 2 2h2c0-1.859-1.28-3.411-3-3.858v-2.142h-2v2h-3v4c0 2.206 1.794 4 4 4 1.103 0 2 .897 2 2v2z"/><path d="m46 29c-9.374 0-17 7.626-17 17s7.626 17 17 17 17-7.626 17-17-7.626-17-17-17zm0 32c-8.271 0-15-6.729-15-15s6.729-15 15-15 15 6.729 15 15-6.729 15-15 15z"/><path d="m46 57c-6.065 0-11-4.935-11-11 0-2.46.804-4.792 2.325-6.745l-1.578-1.229c-1.797 2.307-2.747 5.065-2.747 7.974 0 7.168 5.832 13 13 13 2.909 0 5.667-.95 7.974-2.747l-1.229-1.578c-1.953 1.521-4.285 2.325-6.745 2.325z"/><path d="m46 33c-2.909 0-5.667.95-7.974 2.747l1.229 1.578c1.953-1.521 4.285-2.325 6.745-2.325 6.065 0 11 4.935 11 11 0 2.46-.804 4.792-2.325 6.745l1.578 1.229c1.797-2.307 2.747-5.065 2.747-7.974 0-7.168-5.832-13-13-13z"/><path d="m53 45h2v2h-2z"/><path d="m37 45h2v2h-2z"/><path d="m56 27.887 6.804-10.887h-3.804v-16h-2v18h2.196l-3.196 5.113-3.196-5.113h2.196v-12h-2v10h-3.804z"/><path d="m53 3h2v2h-2z"/><path d="m41 27h2v-16h-2.196l3.196-5.113 3.196 5.113h-2.196v10h2v-8h3.804l-6.804-10.887-6.804 10.887h3.804z"/><path d="m45 23h2v2h-2z"/><path d="m33 16.38v-11.88c0-1.93-1.57-3.5-3.5-3.5s-3.5 1.57-3.5 3.5v9.587l-5.747.525c1.084-1.233 1.747-2.845 1.747-4.612 0-3.86-3.14-7-7-7s-7 3.14-7 7c0 2.038.88 3.869 2.274 5.149-5.246.832-9.274 5.374-9.274 10.851v3c0 2.757 2.243 5 5 5h1v4 1 19.5c0 2.481 2.019 4.5 4.5 4.5 1.421 0 2.675-.675 3.5-1.706.825 1.031 2.079 1.706 3.5 1.706 2.481 0 4.5-2.019 4.5-4.5v-36.595l5.498-.549c2.566-.257 4.502-2.397 4.502-4.976zm-23-6.38c0-2.757 2.243-5 5-5s5 2.243 5 5-2.243 5-5 5-5-2.243-5-5zm3.5 24c1.93 0 3.5-1.57 3.5-3.5s-1.57-3.5-3.5-3.5h-4.5v-2h8v5.5 6.5h-8v-3zm-2 27c-1.378 0-2.5-1.121-2.5-2.5v-19.5h5v19.5c0 1.379-1.122 2.5-2.5 2.5zm7 0c-1.378 0-2.5-1.121-2.5-2.5v-19.5h3v-4h2v23.5c0 1.379-1.122 2.5-2.5 2.5zm12.5-44.62c0 1.548-1.162 2.832-2.702 2.985l-7.298.73v12.905h-2v-10h-12v4h-2v2h8.5c.827 0 1.5.673 1.5 1.5s-.673 1.5-1.5 1.5h-7.5c-1.654 0-3-1.346-3-3v-3c0-4.962 4.038-9 9-9l2.944-.003c.019 0 .037.003.056.003s.038-.003.058-.003l1.033-.001 11.909-1.083v-11.413c0-.827.673-1.5 1.5-1.5s1.5.673 1.5 1.5z"/></svg>